<svg xmlns="http://www.w3.org/2000/svg" xmlns:xlink="http://www.w3.org/1999/xlink" id="Layer_1" x="0px" y="0px" viewBox="0 0 1136.52 1549.17" style="enable-background:new 0 0 1136.52 1549.17;" xml:space="preserve"><g>	<defs>		<path id="SVGID_1_" d="M1128.66,473.58c-9.33-55.79-26.85-108.84-51.25-157.86c-18.52-37.37-41.11-72.42-67.16-104.58   c-5.92-7.39-12.03-14.54-18.38-21.6c-31.78-35.62-68.06-67.16-107.89-93.83c-0.52-0.33-1.04-0.71-1.56-0.99   c-38.51-25.67-80.38-46.7-124.75-62.38c-0.85-0.33-1.75-0.62-2.65-0.9C715.61,17.72,674.21,8.2,631.39,3.51   C610.65,1.18,589.62,0,568.26,0c-21.36,0-42.39,1.18-63.13,3.51c-42.82,4.69-84.21,14.21-123.62,27.95   c-0.9,0.28-1.8,0.56-2.65,0.9c-44.38,15.68-86.25,36.71-124.75,62.38c-0.52,0.29-1.04,0.67-1.56,0.99   c-39.83,26.67-76.11,58.21-107.89,93.83c-6.35,7.05-12.46,14.21-18.38,21.6c-26.05,32.16-48.64,67.21-67.16,104.58   C34.72,364.74,17.19,417.79,7.86,473.58C2.7,504.37,0,536,0,568.26v2.24v692.34v286.33h1136.52v-286.33V570.5v-2.24   C1136.52,536,1133.82,504.37,1128.66,473.58z"></path>	</defs>	<use xlink:href="#SVGID_1_" style="overflow:visible;fill:#E5E5E5;"></use>	<clipPath id="SVGID_2_">		<use xlink:href="#SVGID_1_" style="overflow:visible;"></use>	</clipPath></g></svg>